<svg width="24" height="24" viewBox="0 0 24 24" fill="none" xmlns="http://www.w3.org/2000/svg">
<path d="M11.3438 14.8438C11.3438 15.2062 11.6376 15.5 12 15.5C12.3624 15.5 12.6563 15.2062 12.6563 14.8438L12.6563 7.30687L15.2416 10.0443C15.4905 10.3078 15.9059 10.3197 16.1693 10.0709C16.4328 9.82199 16.4447 9.40665 16.1959 9.14315L12.4771 5.20565C12.3531 5.07439 12.1806 5 12 5C11.8194 5 11.6469 5.07439 11.5229 5.20565L7.80415 9.14315C7.55529 9.40665 7.56716 9.82199 7.83066 10.0709C8.09415 10.3197 8.5095 10.3078 8.75835 10.0443L11.3438 7.30687L11.3438 14.8438Z" fill="#353A40"/>
<path d="M6.3125 14.4062C6.3125 14.0438 6.01869 13.75 5.65625 13.75C5.29381 13.75 5 14.0438 5 14.4062V16.5938C5 17.9227 6.07732 19 7.40625 19H16.5938C17.9227 19 19 17.9227 19 16.5938V14.4062C19 14.0438 18.7062 13.75 18.3438 13.75C17.9813 13.75 17.6875 14.0438 17.6875 14.4062V16.5938C17.6875 17.1978 17.1978 17.6875 16.5938 17.6875H7.40625C6.80219 17.6875 6.3125 17.1978 6.3125 16.5938V14.4062Z" fill="#353A40"/>
</svg>
