<svg width="24" height="24" viewBox="0 0 24 24" fill="none" xmlns="http://www.w3.org/2000/svg">
<path d="M17.8331 19.0412V20.5412H6.16705V19.0412H17.8331ZM18.8331 18.0412V6.37518C18.8331 5.8229 18.3854 5.37518 17.8331 5.37518H6.16705C5.61477 5.37518 5.16705 5.8229 5.16705 6.37518V18.0412C5.16705 18.5935 5.61477 19.0412 6.16705 19.0412V20.5412L5.91119 20.5285C4.65068 20.4004 3.66705 19.3355 3.66705 18.0412V6.37518C3.66705 4.99447 4.78634 3.87518 6.16705 3.87518H17.8331C19.2138 3.87518 20.3331 4.99447 20.3331 6.37518V18.0412C20.3331 19.4219 19.2138 20.5412 17.8331 20.5412V19.0412C18.3854 19.0412 18.8331 18.5935 18.8331 18.0412Z" fill="#353A40"/>
<path d="M8.74975 3.66718V2.00018C8.74975 1.58597 9.08554 1.25018 9.49975 1.25018C9.91397 1.25018 10.2498 1.58597 10.2498 2.00018V3.66718C10.2496 4.08123 9.91385 4.41718 9.49975 4.41718C9.08566 4.41718 8.74994 4.08123 8.74975 3.66718Z" fill="#353A40"/>
<path d="M3.66687 15.2502L1.99988 15.2502C1.58566 15.2502 1.24988 14.9144 1.24988 14.5002C1.24988 14.086 1.58566 13.7502 1.99988 13.7502L3.66687 13.7502C4.08092 13.7504 4.41687 14.0861 4.41687 14.5002C4.41687 14.9143 4.08092 15.25 3.66687 15.2502Z" fill="#353A40"/>
<path d="M22.0005 15.2502L20.3335 15.2502C19.9193 15.2502 19.5835 14.9144 19.5835 14.5002C19.5835 14.086 19.9193 13.7502 20.3335 13.7502L22.0005 13.7502C22.4146 13.7504 22.7505 14.0861 22.7505 14.5002C22.7505 14.9143 22.4146 15.25 22.0005 15.2502Z" fill="#353A40"/>
<path d="M8.74976 22.0002V20.3332C8.74976 19.919 9.08554 19.5832 9.49976 19.5832C9.91397 19.5832 10.2498 19.919 10.2498 20.3332V22.0002C10.2496 22.4142 9.91385 22.7502 9.49976 22.7502C9.08566 22.7502 8.74995 22.4142 8.74976 22.0002Z" fill="#353A40"/>
<path d="M11.2502 3.66718V2.00018C11.2502 1.58597 11.586 1.25018 12.0002 1.25018C12.4144 1.25018 12.7502 1.58597 12.7502 2.00018V3.66718C12.75 4.08123 12.4143 4.41718 12.0002 4.41718C11.5861 4.41718 11.2504 4.08123 11.2502 3.66718Z" fill="#353A40"/>
<path d="M3.66687 12.7502L1.99988 12.7502C1.58566 12.7502 1.24988 12.4144 1.24988 12.0002C1.24988 11.586 1.58566 11.2502 1.99988 11.2502L3.66687 11.2502C4.08092 11.2504 4.41687 11.5861 4.41687 12.0002C4.41687 12.4143 4.08092 12.75 3.66687 12.7502Z" fill="#353A40"/>
<path d="M22.0005 12.7502L20.3335 12.7502C19.9193 12.7502 19.5835 12.4144 19.5835 12.0002C19.5835 11.586 19.9193 11.2502 20.3335 11.2502L22.0005 11.2502C22.4146 11.2504 22.7505 11.5861 22.7505 12.0002C22.7505 12.4143 22.4146 12.75 22.0005 12.7502Z" fill="#353A40"/>
<path d="M11.2502 22.0002V20.3332C11.2502 19.919 11.586 19.5832 12.0002 19.5832C12.4144 19.5832 12.7502 19.919 12.7502 20.3332V22.0002C12.75 22.4142 12.4143 22.7502 12.0002 22.7502C11.5861 22.7502 11.2504 22.4142 11.2502 22.0002Z" fill="#353A40"/>
<path d="M13.7494 3.66718V2.00018C13.7494 1.58597 14.0852 1.25018 14.4994 1.25018C14.9136 1.25018 15.2494 1.58597 15.2494 2.00018V3.66718C15.2492 4.08123 14.9135 4.41718 14.4994 4.41718C14.0853 4.41718 13.7496 4.08123 13.7494 3.66718Z" fill="#353A40"/>
<path d="M3.66687 10.2501L1.99988 10.2501C1.58566 10.2501 1.24988 9.91433 1.24988 9.50012C1.24988 9.08591 1.58566 8.75012 1.99988 8.75012H3.66687C4.08092 8.75031 4.41687 9.08602 4.41687 9.50012C4.41687 9.91422 4.08092 10.2499 3.66687 10.2501Z" fill="#353A40"/>
<path d="M22.0005 10.2501L20.3335 10.2501C19.9193 10.2501 19.5835 9.91433 19.5835 9.50012C19.5835 9.08591 19.9193 8.75012 20.3335 8.75012H22.0005C22.4146 8.75031 22.7505 9.08602 22.7505 9.50012C22.7505 9.91422 22.4146 10.2499 22.0005 10.2501Z" fill="#353A40"/>
<path d="M13.7494 22.0002V20.3332C13.7494 19.919 14.0852 19.5832 14.4994 19.5832C14.9136 19.5832 15.2494 19.919 15.2494 20.3332V22.0002C15.2492 22.4142 14.9135 22.7502 14.4994 22.7502C14.0853 22.7502 13.7496 22.4142 13.7494 22.0002Z" fill="#353A40"/>
<path d="M7.99988 10.2785C7.99988 8.89779 9.11917 7.7785 10.4999 7.7785H13.7558C15.1365 7.7785 16.2558 8.89779 16.2558 10.2785V13.5344C16.2558 14.9152 15.1365 16.0344 13.7558 16.0344H10.4999C9.11917 16.0344 7.99988 14.9152 7.99988 13.5344V10.2785Z" fill="#353A40"/>
<path d="M13.7558 14.5344L13.7558 16.0344H10.4999L10.4999 14.5344H13.7558ZM14.7558 13.5344V10.2785C14.7558 9.72624 14.3081 9.27852 13.7558 9.27852H10.4999C9.94761 9.27852 9.49989 9.72624 9.49989 10.2785V13.5344C9.49989 14.0867 9.94761 14.5344 10.4999 14.5344L10.4999 16.0344C9.11917 16.0344 7.99988 14.9152 7.99988 13.5344V10.2785C7.99988 8.89779 9.11917 7.7785 10.4999 7.7785H13.7558C15.1365 7.7785 16.2558 8.89779 16.2558 10.2785V13.5344C16.2558 14.9152 15.1365 16.0344 13.7558 16.0344L13.7558 14.5344C14.3081 14.5344 14.7558 14.0867 14.7558 13.5344Z" fill="#353A40"/>
</svg>
