<svg width="24" height="24" viewBox="0 0 24 24" fill="none" xmlns="http://www.w3.org/2000/svg">
<path d="M11.1563 15.6562C11.1563 16.1222 11.534 16.5 12 16.5C12.466 16.5 12.8438 16.1222 12.8438 15.6562L12.8438 5.96597L16.1678 9.48559C16.4878 9.82437 17.0218 9.83963 17.3606 9.51967C17.6994 9.19971 17.7146 8.66569 17.3947 8.32691L12.6134 3.26441C12.454 3.09564 12.2321 3 12 3C11.7679 3 11.546 3.09564 11.3866 3.26441L6.60534 8.32691C6.28537 8.66569 6.30063 9.19971 6.63941 9.51967C6.97819 9.83963 7.51221 9.82437 7.83217 9.48559L11.1563 5.96597L11.1563 15.6562Z" fill="#353A40"/>
<path d="M4.6875 15.0938C4.6875 14.6278 4.30974 14.25 3.84375 14.25C3.37776 14.25 3 14.6278 3 15.0938V17.9062C3 19.6149 4.38512 21 6.09375 21H17.9062C19.6149 21 21 19.6149 21 17.9062V15.0938C21 14.6278 20.6222 14.25 20.1562 14.25C19.6903 14.25 19.3125 14.6278 19.3125 15.0938V17.9062C19.3125 18.6829 18.6829 19.3125 17.9062 19.3125H6.09375C5.3171 19.3125 4.6875 18.6829 4.6875 17.9062V15.0938Z" fill="#353A40"/>
</svg>
