<svg width="24" height="24" viewBox="0 0 24 24" fill="none" xmlns="http://www.w3.org/2000/svg">
<path d="M12.8438 3.84375C12.8438 3.37776 12.466 3 12 3C11.534 3 11.1563 3.37776 11.1563 3.84375V13.534L7.83217 10.0144C7.51221 9.67563 6.97819 9.66037 6.63941 9.98033C6.30063 10.3003 6.28538 10.8343 6.60533 11.1731L11.3866 16.2356C11.546 16.4044 11.7679 16.5 12 16.5C12.2321 16.5 12.454 16.4044 12.6134 16.2356L17.3947 11.1731C17.7146 10.8343 17.6994 10.3003 17.3606 9.98033C17.0218 9.66037 16.4878 9.67563 16.1678 10.0144L12.8438 13.534V3.84375Z" fill="currentColor"/>
<path d="M4.6875 15.0938C4.6875 14.6278 4.30974 14.25 3.84375 14.25C3.37776 14.25 3 14.6278 3 15.0938V17.9062C3 19.6149 4.38512 21 6.09375 21H17.9062C19.6149 21 21 19.6149 21 17.9062V15.0938C21 14.6278 20.6222 14.25 20.1562 14.25C19.6903 14.25 19.3125 14.6278 19.3125 15.0938V17.9062C19.3125 18.6829 18.6829 19.3125 17.9062 19.3125H6.09375C5.3171 19.3125 4.6875 18.6829 4.6875 17.9062V15.0938Z" fill="currentColor"/>
</svg>
