<svg width="24" height="24" viewBox="0 0 24 24" fill="none" xmlns="http://www.w3.org/2000/svg">
<path d="M15.8182 8.81818V6.90909C15.8182 5.85473 14.9635 5 13.9091 5H6.90909C5.85473 5 5 5.85473 5 6.90909V13.9091C5 14.9635 5.85473 15.8182 6.90909 15.8182H8.81818M15.8182 8.81818H17.0909C18.1453 8.81818 19 9.67291 19 10.7273V17.0909C19 18.1453 18.1453 19 17.0909 19H10.7273C9.67291 19 8.81818 18.1453 8.81818 17.0909V15.8182M15.8182 8.81818H10.7273C9.67291 8.81818 8.81818 9.67291 8.81818 10.7273V15.8182" stroke="#353A40" stroke-width="1.5" stroke-linecap="round" stroke-linejoin="round"/>
</svg>
