<svg width="24" height="24" viewBox="0 0 24 24" fill="none" xmlns="http://www.w3.org/2000/svg">
<path d="M16.2803 5.06805L17.7829 3.56539C18.5151 2.83316 19.7023 2.83316 20.4345 3.56539C21.1668 4.29763 21.1668 5.48481 20.4345 6.21704L10.5984 16.0533C10.0697 16.5819 9.41767 16.9705 8.70113 17.184L6.01623 17.9838L6.81602 15.2989C7.02946 14.5824 7.41808 13.9303 7.94676 13.4016L16.2803 5.06805ZM16.2803 5.06805L18.9186 7.70637M18.0162 13.9838V18.7338C18.0162 19.9764 17.0089 20.9838 15.7662 20.9838H5.26623C4.02359 20.9838 3.01624 19.9764 3.01624 18.7338L3.01624 8.23378C3.01624 6.99114 4.02359 5.98378 5.26624 5.98378H10.0162" stroke="#353A40" stroke-width="1.5" stroke-linecap="round" stroke-linejoin="round"/>
</svg>
