<svg width="24" height="24" viewBox="0 0 24 24" fill="none" xmlns="http://www.w3.org/2000/svg">
<path d="M14.7102 9.1872C14.7102 9.1872 15.6975 7.69382 16.2 6.16433C17.1932 3.14141 13.717 2.13373 12.7238 4.65287C12.1705 6.05623 11.234 7.17197 10.2408 7.67573C8.72159 8.44635 8.32807 9.05383 7.54102 10.2688L7.53225 10.2823C7.36373 10.5425 7.07448 10.6987 6.76453 10.6987M6.76453 20.2713H7.75774L11.7306 20.7751H16.817C17.9595 20.7751 19.0029 20.1261 19.5079 19.1013L20.0418 18.0181C20.1203 17.8589 20.0893 17.6675 19.9647 17.5411C19.8047 17.3788 19.8047 17.118 19.9647 16.9557L20.4765 16.4366C20.6028 16.3084 20.6922 16.1485 20.7352 15.9738L21.0299 14.7779C21.1178 14.4211 21.077 14.0448 20.9146 13.7152L20.9046 13.695C20.7638 13.4093 20.8193 13.0658 21.0429 12.839C21.1239 12.7568 21.1848 12.6569 21.2208 12.5473L21.2317 12.5143C21.6889 11.1227 20.6523 9.69102 19.1876 9.69102H13.717M3.6593 20.7743L5.76456 20.7743C6.31685 20.7743 6.76456 20.3266 6.76456 19.7743V11.0493C6.76456 10.497 6.31685 10.0493 5.76457 10.0493L3.6593 10.0493C3.10702 10.0493 2.6593 10.497 2.6593 11.0493V19.7743C2.6593 20.3266 3.10702 20.7743 3.6593 20.7743Z" stroke="currentColor" stroke-width="1.5" stroke-linecap="round"/>
</svg>
