<svg width="24" height="24" viewBox="0 0 24 24" fill="none" xmlns="http://www.w3.org/2000/svg">
<path d="M12.6563 5.65625C12.6563 5.29381 12.3624 5 12 5C11.6376 5 11.3438 5.29381 11.3438 5.65625V13.1931L8.75835 10.4557C8.5095 10.1922 8.09415 10.1803 7.83065 10.4291C7.56716 10.678 7.55529 11.0934 7.80415 11.3568L11.5229 15.2943C11.6469 15.4256 11.8194 15.5 12 15.5C12.1806 15.5 12.3531 15.4256 12.4771 15.2943L16.1959 11.3568C16.4447 11.0934 16.4328 10.678 16.1693 10.4291C15.9059 10.1803 15.4905 10.1922 15.2416 10.4557L12.6563 13.1931V5.65625Z" fill="#353A40"/>
<path d="M6.3125 14.4062C6.3125 14.0438 6.01869 13.75 5.65625 13.75C5.29381 13.75 5 14.0438 5 14.4062V16.5938C5 17.9227 6.07732 19 7.40625 19H16.5938C17.9227 19 19 17.9227 19 16.5938V14.4062C19 14.0438 18.7062 13.75 18.3438 13.75C17.9813 13.75 17.6875 14.0438 17.6875 14.4062V16.5938C17.6875 17.1978 17.1978 17.6875 16.5938 17.6875H7.40625C6.80219 17.6875 6.3125 17.1978 6.3125 16.5938V14.4062Z" fill="#353A40"/>
</svg>
