<svg width="24" height="24" viewBox="0 0 24 24" fill="none" xmlns="http://www.w3.org/2000/svg">
<path d="M17.8332 19.04V20.54H6.16718V19.04H17.8332ZM18.8332 18.04V6.37402C18.8332 5.82174 18.3855 5.37402 17.8332 5.37402H6.16718C5.61489 5.37402 5.16718 5.82174 5.16718 6.37402V18.04C5.16718 18.5923 5.61489 19.04 6.16718 19.04V20.54L5.91132 20.5273C4.6508 20.3992 3.66718 19.3344 3.66718 18.04V6.37402C3.66718 4.99331 4.78646 3.87402 6.16718 3.87402H17.8332C19.2139 3.87402 20.3332 4.99331 20.3332 6.37402V18.04C20.3332 19.4208 19.2139 20.54 17.8332 20.54V19.04C18.3855 19.04 18.8332 18.5923 18.8332 18.04Z" fill="currentColor"/>
<path d="M8.75 21.9999V20.3329C8.75003 19.9188 9.08581 19.5829 9.5 19.5829C9.91414 19.583 10.25 19.9188 10.25 20.3329V21.9999C10.2498 22.414 9.91406 22.7499 9.5 22.7499C9.08588 22.7499 8.75016 22.414 8.75 21.9999ZM11.25 21.9999V20.3329C11.25 19.9189 11.5859 19.5831 12 19.5829C12.4142 19.5829 12.75 19.9188 12.75 20.3329V21.9999C12.7498 22.414 12.4141 22.7499 12 22.7499C11.586 22.7498 11.2502 22.4139 11.25 21.9999ZM13.75 21.9999V20.3329C13.75 19.9188 14.0858 19.5829 14.5 19.5829C14.914 19.5832 15.25 19.9189 15.25 20.3329V21.9999C15.2498 22.4139 14.9139 22.7497 14.5 22.7499C14.0859 22.7499 13.7502 22.414 13.75 21.9999ZM3.66699 13.7499C4.08102 13.7501 4.41696 14.0859 4.41699 14.4999C4.41699 14.914 4.08104 15.2497 3.66699 15.2499H2C1.58579 15.2499 1.25 14.9142 1.25 14.4999C1.25003 14.0858 1.58581 13.7499 2 13.7499H3.66699ZM22 13.7499C22.4142 13.7499 22.75 14.0858 22.75 14.4999C22.75 14.9142 22.4142 15.2499 22 15.2499H20.334C19.9198 15.2499 19.584 14.9142 19.584 14.4999C19.584 14.0858 19.9198 13.7499 20.334 13.7499H22ZM3.66699 11.2499C4.08102 11.2501 4.41696 11.5859 4.41699 11.9999C4.41699 12.414 4.08104 12.7497 3.66699 12.7499H2C1.58579 12.7499 1.25 12.4142 1.25 11.9999C1.25003 11.5858 1.58581 11.2499 2 11.2499H3.66699ZM22 11.2499C22.4142 11.2499 22.75 11.5858 22.75 11.9999C22.75 12.4142 22.4142 12.7499 22 12.7499H20.334C19.9198 12.7499 19.584 12.4142 19.584 11.9999C19.584 11.5858 19.9198 11.2499 20.334 11.2499H22ZM3.66699 8.74994C4.08104 8.75013 4.41699 9.08584 4.41699 9.49994C4.41696 9.91401 4.08102 10.2497 3.66699 10.2499H2C1.58581 10.2499 1.25003 9.91412 1.25 9.49994C1.25 9.08573 1.58579 8.74994 2 8.74994H3.66699ZM22 8.74994C22.4142 8.74994 22.75 9.08573 22.75 9.49994C22.75 9.91412 22.4142 10.2499 22 10.2499H20.334C19.9198 10.2499 19.584 9.91412 19.584 9.49994C19.584 9.08573 19.9198 8.74994 20.334 8.74994H22ZM8.75 3.66693V1.99994C8.75 1.58573 9.08579 1.24994 9.5 1.24994C9.91416 1.25001 10.25 1.58577 10.25 1.99994V3.66693C10.2498 4.08094 9.91404 4.41686 9.5 4.41693C9.0859 4.41693 8.75019 4.08098 8.75 3.66693ZM11.25 3.66693V1.99994C11.25 1.58583 11.5859 1.25011 12 1.24994C12.4142 1.24994 12.75 1.58573 12.75 1.99994V3.66693C12.7498 4.08098 12.4141 4.41693 12 4.41693C11.586 4.41676 11.2502 4.08088 11.25 3.66693ZM13.749 3.66693V1.99994C13.749 1.58588 14.085 1.2502 14.499 1.24994C14.9132 1.24994 15.249 1.58573 15.249 1.99994V3.66693C15.2488 4.08098 14.9131 4.41693 14.499 4.41693C14.0851 4.41667 13.7492 4.08082 13.749 3.66693Z" fill="currentColor"/>
<path d="M13.5347 14.5345V16.0345H10.2788V14.5345H13.5347ZM14.5347 13.5345V10.2786C14.5347 9.72629 14.087 9.27857 13.5347 9.27857H10.2788C9.72654 9.27857 9.27882 9.72629 9.27882 10.2786V13.5345C9.27882 14.0868 9.72654 14.5345 10.2788 14.5345V16.0345L10.023 16.0218C8.76243 15.8937 7.77881 14.8288 7.77881 13.5345V10.2786C7.77881 8.98423 8.76243 7.91939 10.023 7.79126L10.2788 7.77856H13.5347C14.9154 7.77856 16.0347 8.89786 16.0347 10.2786V13.5345C16.0347 14.9152 14.9154 16.0345 13.5347 16.0345V14.5345C14.087 14.5345 14.5347 14.0868 14.5347 13.5345Z" fill="currentColor"/>
</svg>
