<svg width="24" height="24" viewBox="0 0 24 24" fill="none" xmlns="http://www.w3.org/2000/svg">
<path fill-rule="evenodd" clip-rule="evenodd" d="M2.21122 6.21485C2.49284 5.92838 2.94944 5.92838 3.23106 6.21485L9.21136 12.2979L12.8227 8.62457C13.078 8.36483 13.4829 8.33726 13.77 8.56004C15.8494 10.1736 17.4401 12.4747 18.1692 15.2425L18.4652 16.3661L20.6542 12.5094C20.8534 12.1586 21.2944 12.0383 21.6393 12.2409C21.9842 12.4435 22.1024 12.8921 21.9033 13.2429L18.8437 18.6332C18.7481 18.8017 18.5906 18.9247 18.4059 18.975C18.2211 19.0254 18.0243 18.999 17.8587 18.9017L12.5594 15.7896C12.2145 15.5871 12.0963 15.1384 12.2954 14.7876C12.4946 14.4368 12.9356 14.3166 13.2805 14.5191L17.0721 16.7458L16.7761 15.6222C16.1908 13.4003 14.9782 11.5216 13.3836 10.1287L9.72128 13.854C9.43966 14.1404 8.98307 14.1404 8.70144 13.854L2.21122 7.25221C1.92959 6.96575 1.92959 6.50131 2.21122 6.21485Z" fill="currentColor"/>
</svg>
