<svg width="24" height="24" viewBox="0 0 24 24" fill="none" xmlns="http://www.w3.org/2000/svg">
<path fill-rule="evenodd" clip-rule="evenodd" d="M19.0886 5.59629C19.592 5.59629 20 6.01602 20 6.53379V10.5113C20 11.029 19.592 11.4488 19.0886 11.4488H15.2221C14.7188 11.4488 14.3108 11.029 14.3108 10.5113C14.3108 9.99349 14.7188 9.57376 15.2221 9.57376H16.8885L15.8665 8.52252C13.7311 6.32583 10.2689 6.32582 8.13346 8.52252C7.78621 8.87974 7.49622 9.2719 7.26268 9.68744C7.01077 10.1357 6.45331 10.289 6.01756 10.0298C5.58182 9.77071 5.43279 9.19725 5.68471 8.749C5.99708 8.19318 6.38398 7.67055 6.84462 7.1967C9.69186 4.26777 14.3081 4.26777 17.1554 7.1967L18.1773 8.24794V6.53379C18.1773 6.01602 18.5853 5.59629 19.0886 5.59629ZM17.9822 14.9708C18.4179 15.23 18.5669 15.8034 18.3149 16.2517C18.0026 16.8072 17.6158 17.3296 17.1554 17.8033C14.3081 20.7322 9.69186 20.7322 6.84462 17.8033L5.8227 16.7521V18.4662C5.8227 18.984 5.41468 19.4037 4.91135 19.4037C4.40803 19.4037 4 18.984 4 18.4662L4 14.4887C4 13.971 4.40803 13.5512 4.91135 13.5512H8.77789C9.28121 13.5512 9.68924 13.971 9.68924 14.4887C9.68924 15.0065 9.28121 15.4262 8.77789 15.4262H7.11155L8.13346 16.4775C10.2689 18.6742 13.7311 18.6742 15.8665 16.4775C16.2136 16.1204 16.5036 15.7284 16.737 15.313C16.989 14.8648 17.5465 14.7116 17.9822 14.9708Z" fill="currentColor"/>
</svg>
