<svg width="24" height="24" viewBox="0 0 24 24" fill="none" xmlns="http://www.w3.org/2000/svg">
<path fill-rule="evenodd" clip-rule="evenodd" d="M14.9975 6.44564C15.1381 6.08768 15.5491 5.90889 15.9155 6.0463L21.5441 8.15743C21.72 8.22342 21.8619 8.35499 21.9386 8.5232C22.0152 8.69141 22.0203 8.88248 21.9528 9.05438L19.7922 14.5541C19.6515 14.912 19.2406 15.0908 18.8742 14.9534C18.5079 14.816 18.3249 14.4144 18.4655 14.0565L20.0114 10.1215L18.982 10.5693C16.6579 11.5804 14.8877 13.3029 13.8186 15.3583C13.7155 15.5566 13.5214 15.6945 13.2967 15.7294C13.0719 15.7643 12.8436 15.6919 12.6827 15.5347L9.10534 12.0393L3.21296 17.7967C2.93548 18.0678 2.48559 18.0678 2.20811 17.7967C1.93063 17.5255 1.93063 17.086 2.20811 16.8148L8.60291 10.5665C8.73617 10.4363 8.91689 10.3632 9.10534 10.3632C9.29378 10.3632 9.47451 10.4363 9.60776 10.5665L13.024 13.9045C14.2562 11.941 16.0885 10.3082 18.404 9.30086L19.4334 8.85307L15.4062 7.34259C15.0399 7.20518 14.8569 6.8036 14.9975 6.44564Z" fill="currentColor"/>
</svg>
