<svg width="24" height="24" viewBox="0 0 24 24" fill="none" xmlns="http://www.w3.org/2000/svg">
<path fill-rule="evenodd" clip-rule="evenodd" d="M17.0508 3.0791C19.5571 3.0795 21.5897 5.11175 21.5898 7.61816V13.2832C21.5898 15.7897 19.5572 17.8219 17.0508 17.8223H13.2383L9.18555 21.6602C8.58529 22.2282 7.5957 21.8021 7.5957 20.9756V17.8213C5.09917 17.8093 3.0791 15.7825 3.0791 13.2832V7.61816C3.07922 5.11158 5.11158 3.07922 7.61816 3.0791H17.0508ZM7.61816 4.37988C5.82955 4.38 4.38 5.82955 4.37988 7.61816V13.2832C4.37988 15.0719 5.82947 16.5223 7.61816 16.5225H8.24707C8.60578 16.5228 8.89648 16.8141 8.89648 17.1729V20.1426L12.5322 16.7012C12.6579 16.5822 12.819 16.5246 12.9795 16.5244V16.5225H17.0508C18.8392 16.5221 20.2891 15.0717 20.2891 13.2832V7.61816C20.2889 5.82972 18.8392 4.38028 17.0508 4.37988H7.61816Z" fill="currentColor"/>
<path fill-rule="evenodd" clip-rule="evenodd" d="M17.0508 3.0791C19.5571 3.0795 21.5897 5.11175 21.5898 7.61816V13.2832C21.5898 15.7897 19.5572 17.8219 17.0508 17.8223H13.2383L9.18555 21.6602C8.58529 22.2282 7.5957 21.8021 7.5957 20.9756V17.8213C5.09917 17.8093 3.0791 15.7825 3.0791 13.2832V7.61816C3.07922 5.11158 5.11158 3.07922 7.61816 3.0791H17.0508ZM7.61816 4.37988C5.82955 4.38 4.38 5.82955 4.37988 7.61816V13.2832C4.37988 15.0719 5.82947 16.5223 7.61816 16.5225H8.24707C8.60578 16.5228 8.89648 16.8141 8.89648 17.1729V20.1426L12.5322 16.7012C12.6579 16.5822 12.819 16.5246 12.9795 16.5244V16.5225H17.0508C18.8392 16.5221 20.2891 15.0717 20.2891 13.2832V7.61816C20.2889 5.82972 18.8392 4.38028 17.0508 4.37988H7.61816Z" fill="currentColor"/>
</svg>
