<svg width="24" height="24" viewBox="0 0 24 24" fill="none" xmlns="http://www.w3.org/2000/svg">
<path d="M2.1 5.2793H7.34591V19.7055H2.1V5.2793Z" fill="currentColor"/>
<path d="M7.34591 5.2793V19.7055H2.1V5.2793H7.34591ZM3.6 18.2051H5.8461V6.7793H3.6V18.2051Z" fill="currentColor"/>
<path d="M9.31314 9.21289H14.559V19.7047H9.31314V9.21289Z" fill="currentColor"/>
<path d="M14.559 9.21289V19.7047H9.31314V9.21289H14.559ZM10.8131 18.2051H13.0592V10.7129H10.8131V18.2051Z" fill="currentColor"/>
<path d="M16.5262 2H21.7721V19.7049H16.5262V2Z" fill="currentColor"/>
<path d="M21.7721 2V19.7049H16.5262V2H21.7721ZM18.0262 18.2049H20.2722V3.49999H18.0262V18.2049Z" fill="currentColor"/>
<path d="M22.1943 21.25V22.75H1.67773V21.25H22.1943Z" fill="currentColor"/>
</svg>
