<svg width="24" height="24" viewBox="0 0 24 24" fill="none" xmlns="http://www.w3.org/2000/svg">
<path d="M9.47954 3.94005C9.57423 3.39759 10.0658 3 10.6417 3H13.3583C13.9342 3 14.4258 3.39759 14.5205 3.94005L14.7441 5.2211C14.8093 5.59514 15.0711 5.90671 15.4186 6.09036C15.4963 6.13142 15.5731 6.17383 15.6489 6.21757C15.9893 6.41384 16.4033 6.47486 16.7757 6.34166L18.0501 5.88578C18.5894 5.69284 19.1958 5.90051 19.4838 6.37677L20.8421 8.62321C21.1301 9.09948 21.0152 9.70473 20.5706 10.0543L19.5187 10.8811C19.2124 11.1219 19.0605 11.4937 19.0679 11.8725C19.0687 11.9149 19.0691 11.9574 19.0691 12C19.0691 12.0426 19.0687 12.0851 19.0679 12.1275C19.0605 12.5063 19.2124 12.8781 19.5187 13.1189L20.5706 13.9457C21.0152 14.2953 21.1301 14.9005 20.8421 15.3768L19.4838 17.6232C19.1958 18.0995 18.5894 18.3071 18.0501 18.1142L16.7757 17.6583C16.4034 17.5251 15.9893 17.5862 15.6489 17.7824C15.5731 17.8262 15.4963 17.8686 15.4186 17.9096C15.0711 18.0933 14.8093 18.4049 14.7441 18.7789L14.5205 20.0599C14.4258 20.6024 13.9342 21 13.3583 21H10.6417C10.0658 21 9.57423 20.6024 9.47954 20.0599L9.25594 18.7789C9.19065 18.4049 8.92886 18.0933 8.58141 17.9096C8.50373 17.8686 8.42694 17.8262 8.35108 17.7824C8.01068 17.5862 7.59666 17.5251 7.22429 17.6583L5.94989 18.1142C5.41055 18.3072 4.80418 18.0995 4.51621 17.6232L3.15791 15.3768C2.86994 14.9005 2.98478 14.2953 3.42943 13.9457L4.48127 13.1189C4.7876 12.8781 4.93946 12.5063 4.93211 12.1275C4.93129 12.0851 4.93087 12.0426 4.93087 12C4.93087 11.9574 4.93129 11.9149 4.93211 11.8725C4.93946 11.4937 4.7876 11.1219 4.48127 10.8811L3.42943 10.0543C2.98478 9.70475 2.86994 9.09949 3.15791 8.62323L4.51621 6.37679C4.80419 5.90052 5.41055 5.69286 5.94989 5.88579L7.22427 6.34167C7.59665 6.47487 8.01067 6.41385 8.35107 6.21758C8.42693 6.17384 8.50372 6.13142 8.58141 6.09036C8.92886 5.90671 9.19065 5.59514 9.25594 5.2211L9.47954 3.94005Z" stroke="currentColor" stroke-width="1.5" stroke-linecap="round" stroke-linejoin="round"/>
<path d="M15.1416 11.9999C15.1416 13.6568 13.7349 14.9999 11.9998 14.9999C10.2646 14.9999 8.85792 13.6568 8.85792 11.9999C8.85792 10.3431 10.2646 8.99992 11.9998 8.99992C13.7349 8.99992 15.1416 10.3431 15.1416 11.9999Z" stroke="currentColor" stroke-width="1.5" stroke-linecap="round" stroke-linejoin="round"/>
</svg>
