<svg width="24" height="24" viewBox="0 0 24 24" fill="none" xmlns="http://www.w3.org/2000/svg">
<path d="M9.09009 8.99999C9.32519 8.33166 9.78924 7.7681 10.4 7.40912C11.0108 7.05015 11.729 6.91893 12.4273 7.0387C13.1255 7.15848 13.7589 7.52151 14.2152 8.06352C14.6714 8.60552 14.9211 9.29151 14.9201 9.99999C14.9201 12 11.9201 13 11.9201 13M12 17H12.01M21 12C21 16.9706 16.9706 21 12 21C7.02944 21 3 16.9706 3 12C3 7.02944 7.02944 3 12 3C16.9706 3 21 7.02944 21 12Z" stroke="currentColor" stroke-width="1.5" stroke-linecap="round" stroke-linejoin="round"/>
</svg>
