<svg width="24" height="24" viewBox="0 0 24 24" fill="none" xmlns="http://www.w3.org/2000/svg">
<path d="M11.4806 3.61064C11.6728 3.14867 12.3272 3.14867 12.5193 3.61064L14.6453 8.7221C14.7263 8.91686 14.9095 9.04993 15.1197 9.06678L20.638 9.50918C21.1367 9.54916 21.339 10.1716 20.959 10.4971L16.7546 14.0985C16.5945 14.2357 16.5245 14.4511 16.5734 14.6562L17.8579 20.0411C17.974 20.5278 17.4446 20.9125 17.0176 20.6517L12.2932 17.766C12.1132 17.6561 11.8868 17.6561 11.7068 17.766L6.98238 20.6517C6.55539 20.9125 6.02594 20.5278 6.14203 20.0411L7.42652 14.6562C7.47546 14.4511 7.4055 14.2357 7.24531 14.0985L3.04099 10.4971C2.661 10.1716 2.86323 9.54916 3.36197 9.50918L8.88022 9.06678C9.09048 9.04993 9.27363 8.91686 9.35464 8.7221L11.4806 3.61064Z" stroke="currentColor" stroke-width="1.5" stroke-linecap="round" stroke-linejoin="round"/>
</svg>
