<svg width="24" height="24" viewBox="0 0 24 24" fill="none" xmlns="http://www.w3.org/2000/svg">
<path d="M9.28978 14.8129C9.28978 14.8129 8.3025 16.3063 7.79997 17.8357C6.80676 20.8587 10.283 21.8663 11.2762 19.3472C11.8295 17.9438 12.766 16.8281 13.7592 16.3243C15.2784 15.5537 15.6719 14.9462 16.459 13.7313L16.4677 13.7178C16.6363 13.4576 16.9255 13.3014 17.2355 13.3014M17.2355 3.7288H16.2422L12.2694 3.22498H7.18297C6.04045 3.22498 4.99711 3.87394 4.49203 4.89876L3.95818 5.98195C3.87972 6.14115 3.91064 6.33257 4.03523 6.45897C4.19524 6.6213 4.19524 6.88204 4.03523 7.04437L3.52352 7.56352C3.3972 7.69167 3.30781 7.85153 3.26475 8.02625L2.97005 9.22221C2.88213 9.57897 2.92299 9.95532 3.08543 10.2849L3.09538 10.3051C3.23617 10.5908 3.18069 10.9343 2.95711 11.1611C2.87609 11.2433 2.81518 11.3431 2.77915 11.4528L2.7683 11.4858C2.31111 12.8774 3.34771 14.3091 4.81242 14.3091H10.283M20.3407 3.22574L18.2355 3.22574C17.6832 3.22574 17.2355 3.67345 17.2355 4.22574V12.9507C17.2355 13.503 17.6832 13.9507 18.2355 13.9507L20.3407 13.9507C20.893 13.9507 21.3407 13.503 21.3407 12.9507V4.22574C21.3407 3.67346 20.893 3.22574 20.3407 3.22574Z" stroke="currentColor" stroke-width="1.5" stroke-linecap="round"/>
</svg>
